<?xml version="1.0" encoding="utf-8"?>
<!-- Svg Vector Icons : http://www.onlinewebfonts.com/icon -->
<!DOCTYPE svg PUBLIC "-//W3C//DTD SVG 1.1//EN" "http://www.w3.org/Graphics/SVG/1.1/DTD/svg11.dtd">
<svg version="1.1" xmlns="http://www.w3.org/2000/svg" xmlns:xlink="http://www.w3.org/1999/xlink" x="0px" y="0px" viewBox="0 0 1000 1000" enable-background="new 0 0 1000 1000" xml:space="preserve">
<metadata> Svg Vector Icons : http://www.onlinewebfonts.com/icon </metadata>
<g><g transform="translate(0.000000,512.000000) scale(0.100000,-0.100000)"><path d="M3014.7,4996.9c-327.8-74.8-609.6-339.3-703.5-661.4c-67.1-228.1-26.8-557.9,90.1-749.6c103.5-170.6,318.2-350.8,490.8-412.2c542.5-189.8,1113.8,115,1257.6,671C4322.1,4513.8,3693.3,5150.3,3014.7,4996.9z"/><path d="M5334.3,3672.2C4926,3561.1,4657.6,3216,4657.6,2800c0-266.5,97.8-485,299.1-669c525.3-479.3,1380.3-172.5,1489.5,534.8c69,448.6-222.4,889.5-667.1,1006.4C5641,3706.7,5466.6,3706.7,5334.3,3672.2z"/><path d="M2228.7,3135.5c-274.1-84.3-460.1-320.1-479.3-603.9c-7.7-103.5,9.6-207,97.8-594.3c143.8-625,232-805.2,521.4-1071.6c126.5-116.9,383.4-255,1039-559.8c347-162.9,463.9-389.2,331.7-646c-21.1-38.3-741.9-812.8-1602.7-1719.6C1275.9-2966.5,551.3-3739,526.4-3777.4c-111.2-172.5-134.2-433.3-51.8-615.4c53.7-124.6,178.3-253,297.1-304.8c139.9-63.3,348.9-61.3,483.1,1.9c99.7,49.8,279.9,218.5,1667.8,1570.1c621.1,605.8,703.6,680.5,832,745.7c132.3,65.2,155.3,70.9,306.7,70.9c145.7,0,176.4-7.7,266.5-55.6c111.2-61.3,205.1-184,226.2-293.3c21.1-111.2-1.9-264.6-55.6-371.9c-30.7-61.3-180.2-247.3-368.1-458.2c-383.4-429.4-421.7-496.5-421.7-728.5c0-145.7,5.8-174.5,57.5-266.5c111.2-199.4,293.3-295.2,565.5-297.1c255,0,316.3,30.7,847.3,423.7c536.8,398.8,600,450.5,717,601.9c101.6,132.3,239.6,387.3,283.7,527.2c17.2,55.6,95.8,565.5,174.4,1133c155.3,1148.3,157.2,1154.1,316.3,1297.8c116.9,105.4,233.9,151.5,383.4,151.5c69,0,508-67.1,977.7-149.5C8970.9-957.4,9038-961.3,9224-876.9c136.1,63.3,226.2,143.8,295.2,268.4c47.9,88.2,55.6,120.8,55.6,245.4c0,111.2-9.6,162.9-44.1,226.2c-65.2,122.7-164.9,222.4-278,279.9c-59.4,30.7-1148.3,343.1-2726,780.2c-1443.5,400.7-2680,745.7-2745.2,766.8c-128.4,42.2-339.3,182.1-450.5,297.1c-153.4,162.9-224.3,293.3-312.5,575.1c-53.7,166.8-109.3,301-143.8,350.8C2727.1,3116.3,2460.7,3208.3,2228.7,3135.5z"/></g></g>
</svg>